# xmcd
#
# Track frame offsets: 
#        150
#        14845
#        27595
#        43247
#        55527
#        67687
#        79347
#        91805
#        106492
#        118160
#        129927
#        140887
#
# Disc length: 2042 seconds
#
# Revision: 0
# Processed by: cddbd v1.5.1PL0 Copyright (c) Steve Scherf et al.
# Submitted via: ExactAudioCopy v0.95b2
#
DISCID=a707f80c
DTITLE=Pancho Barraza - Ya Se Fue
DYEAR=2000
DGENRE=Latin
TTITLE0=Ya Se Fue
TTITLE1=Un Indio Quiere Llorar
TTITLE2=Compañera Mía
TTITLE3=Mi Juramento
TTITLE4=La Secretaria
TTITLE5=Ay Amigo
TTITLE6=Lola La Bailera
TTITLE7=No Va A Matarme Tu Amor
TTITLE8=Las Rejas No Matan
TTITLE9=La Vaca Pinta
TTITLE10=La Negra No Ha Bailao
TTITLE11=La Unica Estrella
EXTD=
EXTT0=
EXTT1=
EXTT2=
EXTT3=
EXTT4=
EXTT5=
EXTT6=
EXTT7=
EXTT8=
EXTT9=
EXTT10=
EXTT11=
PLAYORDER=
